<svg width="86" height="86" viewBox="0 0 86 86" fill="none" xmlns="http://www.w3.org/2000/svg">
<rect width="86" height="86" rx="37" fill="#FF7F40" fill-opacity="0.3"/>
<rect x="7" y="7" width="72" height="72" rx="31" fill="#FF7F40"/>
<path fill-rule="evenodd" clip-rule="evenodd" d="M47.4561 27.1874H38.5436C38.2619 28.5687 37.5802 29.8366 36.5834 30.8334C35.5866 31.8303 34.3186 32.5119 32.9374 32.7936V34.0395C34.3186 34.3212 35.5866 35.0029 36.5834 35.9997C37.5802 36.9965 38.2619 38.2644 38.5436 39.6457H47.4561C47.7378 38.2644 48.4195 36.9965 49.4163 35.9997C50.4131 35.0029 51.6811 34.3212 53.0624 34.0395V32.7936C51.6811 32.5119 50.4131 31.8303 49.4163 30.8334C48.4195 29.8366 47.7378 28.5687 47.4561 27.1874ZM48.6157 24.3181C48.0892 24.313 47.5283 24.3111 46.9329 24.3124H39.0669C38.4714 24.3124 37.9111 24.3143 37.3859 24.3181C37.2812 24.3115 37.1761 24.3134 37.0716 24.3239C36.2053 24.3392 35.4367 24.3756 34.7697 24.4657C33.566 24.6267 32.4793 24.9832 31.6072 25.8553C30.7332 26.7293 30.3767 27.8161 30.2157 29.0178C30.1256 29.6867 30.0892 30.4553 30.0739 31.3216C30.0634 31.4255 30.0615 31.5299 30.0681 31.6341C30.063 32.1618 30.0611 32.7227 30.0624 33.3169V33.5162C30.0624 34.1104 30.0643 34.6713 30.0681 35.1991C30.0615 35.3032 30.0634 35.4077 30.0739 35.5115C30.0892 36.3797 30.1256 37.1464 30.2157 37.8134C30.3767 39.0171 30.7332 40.1038 31.6072 40.9759C32.4793 41.8499 33.566 42.2064 34.7697 42.3674C35.4367 42.4575 36.2053 42.4939 37.0716 42.5092C37.1761 42.5197 37.2812 42.5217 37.3859 42.515C37.9111 42.5201 38.4714 42.522 39.0669 42.5207H46.9329C47.527 42.5207 48.088 42.5188 48.6157 42.515C48.7198 42.5216 48.8243 42.5196 48.9281 42.5092C49.7964 42.4939 50.5649 42.4575 51.23 42.3674C52.4337 42.2064 53.5204 41.8499 54.3925 40.9759C55.2665 40.1038 55.623 39.0171 55.784 37.8134C55.8733 37.0492 55.9206 36.2808 55.9259 35.5115C55.9363 35.4077 55.9382 35.3032 55.9316 35.1991C55.9367 34.6713 55.9386 34.1104 55.9374 33.5162V33.3169C55.9374 32.7227 55.9354 32.1618 55.9316 31.6341C55.9382 31.5299 55.9363 31.4255 55.9259 31.3216C55.9206 30.5523 55.8733 29.7839 55.784 29.0197C55.623 27.8161 55.2665 26.7293 54.3944 25.8572C53.5204 24.9832 52.4337 24.6267 51.2319 24.4657C50.4672 24.3764 49.6981 24.3291 48.9281 24.3239C48.8243 24.3135 48.7198 24.3116 48.6157 24.3181ZM50.4634 27.2717C50.6807 27.845 51.0172 28.3655 51.4507 28.799C51.8842 29.2325 52.4048 29.5691 52.978 29.7864C52.9659 29.6583 52.9512 29.5305 52.9339 29.4031C52.817 28.5176 52.61 28.1381 52.3589 27.8889C52.1079 27.6397 51.7322 27.4346 50.8486 27.3139C50.7211 27.2973 50.5933 27.2832 50.4653 27.2717M52.9799 37.0467C52.4067 37.2641 51.8861 37.6006 51.4526 38.0341C51.0192 38.4676 50.6826 38.9882 50.4653 39.5614C50.5994 39.5486 50.7272 39.5346 50.8486 39.5192C51.7341 39.3985 52.1136 39.1934 52.3628 38.9442C52.6119 38.6951 52.8189 38.3156 52.9378 37.4301C52.9531 37.3087 52.9672 37.1809 52.9799 37.0467ZM35.5383 39.5614C35.3209 38.9882 34.9844 38.4676 34.5509 38.0341C34.1174 37.6006 33.5968 37.2641 33.0236 37.0467C33.0364 37.1809 33.0511 37.3087 33.0677 37.4301C33.1865 38.3156 33.3916 38.6951 33.6427 38.9442C33.8938 39.1934 34.2694 39.3985 35.153 39.5192C35.2757 39.5346 35.4041 39.5486 35.5383 39.5614ZM33.0236 29.7864C33.5968 29.5691 34.1174 29.2325 34.5509 28.799C34.9844 28.3655 35.3209 27.845 35.5383 27.2717C35.4041 27.2845 35.2763 27.2992 35.1549 27.3158C34.2694 27.4346 33.8899 27.6397 33.6408 27.8908C33.3916 28.1419 33.1865 28.5176 33.0658 29.4011L33.0236 29.7864ZM42.9999 32.9374C42.8728 32.9374 42.7509 32.9879 42.661 33.0777C42.5712 33.1676 42.5207 33.2895 42.5207 33.4166C42.5207 33.5436 42.5712 33.6655 42.661 33.7554C42.7509 33.8452 42.8728 33.8957 42.9999 33.8957C43.1269 33.8957 43.2488 33.8452 43.3387 33.7554C43.4285 33.6655 43.479 33.5436 43.479 33.4166C43.479 33.2895 43.4285 33.1676 43.3387 33.0777C43.2488 32.9879 43.1269 32.9374 42.9999 32.9374ZM39.6457 33.4166C39.6457 32.527 39.9991 31.6738 40.6281 31.0448C41.2571 30.4158 42.1103 30.0624 42.9999 30.0624C43.8894 30.0624 44.7426 30.4158 45.3716 31.0448C46.0006 31.6738 46.354 32.527 46.354 33.4166C46.354 34.3061 46.0006 35.1593 45.3716 35.7883C44.7426 36.4173 43.8894 36.7707 42.9999 36.7707C42.1103 36.7707 41.2571 36.4173 40.6281 35.7883C39.9991 35.1593 39.6457 34.3061 39.6457 33.4166ZM36.6442 47.6919C40.2207 47 44.0483 47.1552 47.1475 49.0029C47.5807 49.2616 47.9909 49.5856 48.3454 49.9842C49.0661 50.795 49.4379 51.7993 49.4552 52.8075C49.8206 52.5698 50.1893 52.3098 50.5611 52.0274L54.0264 49.4111C54.8946 48.774 55.9434 48.4304 57.0203 48.4304C58.0972 48.4304 59.146 48.774 60.0141 49.4111C61.6145 50.6186 62.2547 52.7902 61.1066 54.6302C60.292 55.9355 59.0654 57.7429 57.8157 58.9006C56.5507 60.0697 54.7548 61.0549 53.3959 61.7104C51.7437 62.5077 49.9612 62.9486 48.2266 63.2284C44.6808 63.8034 40.9931 63.7152 37.4894 62.9926C35.6826 62.6211 33.8428 62.433 31.9982 62.4311H27.6665C27.2853 62.4311 26.9196 62.2796 26.6501 62.01C26.3805 61.7404 26.229 61.3748 26.229 60.9936C26.229 60.6123 26.3805 60.2467 26.6501 59.9771C26.9196 59.7075 27.2853 59.5561 27.6665 59.5561H31.9982C34.0337 59.5561 36.0903 59.7688 38.0702 60.1771C41.2637 60.8323 44.5494 60.9044 47.7685 60.3898C49.3555 60.133 50.839 59.7516 52.1462 59.121C53.4553 58.4885 54.9273 57.6566 55.8607 56.7922C56.8056 55.9163 57.8617 54.4002 58.6686 53.1084C58.912 52.7174 58.8775 52.1558 58.2814 51.7054C57.5723 51.1687 56.4664 51.1687 55.7591 51.7054L52.2957 54.3216C50.9119 55.3662 49.2099 56.4836 47.0996 56.821C46.8785 56.856 46.6568 56.8866 46.4345 56.913C46.3246 56.9321 46.2103 56.9449 46.0914 56.9513C44.86 57.0708 43.6199 57.0708 42.3884 56.9513C42.1975 56.9375 42.0113 56.8856 41.8407 56.7989C41.6701 56.7121 41.5185 56.5921 41.3949 56.446C41.2713 56.2998 41.1781 56.1305 41.1208 55.9479C41.0635 55.7652 41.0432 55.573 41.0612 55.3824C41.0792 55.1918 41.1351 55.0068 41.2256 54.8381C41.316 54.6694 41.4393 54.5205 41.5881 54.4001C41.7369 54.2797 41.9082 54.1902 42.0921 54.1369C42.2759 54.0836 42.4686 54.0676 42.6587 54.0897C43.722 54.1926 44.7928 54.1907 45.8557 54.084L45.9132 54.0782C46.092 53.9672 46.244 53.818 46.3581 53.6411C46.4723 53.4643 46.5457 53.2644 46.5732 53.0557C46.6007 52.847 46.5816 52.6349 46.5172 52.4345C46.4527 52.2342 46.3447 52.0506 46.2007 51.8971C46.047 51.73 45.8693 51.5866 45.6736 51.4716C43.41 50.1203 40.3855 49.8961 37.1904 50.5132C34.0692 51.1398 31.1105 52.4023 28.4984 54.222C28.3443 54.3312 28.1703 54.409 27.9862 54.451C27.802 54.493 27.6115 54.4983 27.4253 54.4666C27.2391 54.4349 27.061 54.3669 26.9011 54.2664C26.7413 54.1659 26.6028 54.0349 26.4935 53.8808C26.3843 53.7268 26.3065 53.5527 26.2645 53.3686C26.2225 53.1845 26.2172 52.9939 26.2489 52.8077C26.3129 52.4318 26.5236 52.0966 26.8347 51.876C29.7812 49.8202 33.1209 48.3956 36.6442 47.6919Z" fill="white"/>
</svg>
