<svg width="86" height="86" viewBox="0 0 86 86" fill="none" xmlns="http://www.w3.org/2000/svg">
<rect width="86" height="86" rx="37" fill="#845FFF" fill-opacity="0.3"/>
<rect x="7" y="7" width="72" height="72" rx="31" fill="#845FFF"/>
<path d="M50.668 37.2502C50.668 47.466 35.3346 47.466 35.3346 37.2502H39.168C39.168 42.3677 46.8346 42.3677 46.8346 37.2502M58.3346 54.5002V60.2502H27.668V54.5002C27.668 49.3827 37.8838 46.8335 43.0013 46.8335C48.1188 46.8335 58.3346 49.3827 58.3346 54.5002ZM54.693 54.5002C54.693 53.2735 48.6938 50.4752 43.0013 50.4752C37.3088 50.4752 31.3096 53.2735 31.3096 54.5002V56.6085H54.693M43.9596 23.8335C44.4963 23.8335 44.918 24.2552 44.918 24.7918V30.5418H46.8346V25.7502C48.1911 26.3779 49.3275 27.3989 50.0965 28.6805C50.8655 29.9622 51.2316 31.4454 51.1471 32.9377C51.1471 32.9377 52.4888 33.206 52.5846 35.3335H33.418C33.418 33.206 34.8555 32.9377 34.8555 32.9377C34.771 31.4454 35.1371 29.9622 35.9061 28.6805C36.6751 27.3989 37.8115 26.3779 39.168 25.7502V30.5418H41.0846V24.7918C41.0846 24.2552 41.5063 23.8335 42.043 23.8335" fill="white"/>
</svg>
