<svg width="86" height="86" viewBox="0 0 86 86" fill="none" xmlns="http://www.w3.org/2000/svg">
<rect width="86" height="86" rx="37" fill="#00CE3F" fill-opacity="0.3"/>
<rect x="7" y="7" width="72" height="72" rx="31" fill="#00CE3F"/>
<g clip-path="url(#clip0_5458_315)">
<path d="M48.6162 46.4814C47.2985 45.3584 45.8385 44.4974 44.2363 43.8984C42.6341 43.2995 40.972 43 39.25 43C37.9323 43 36.6595 43.1722 35.4316 43.5166C34.2038 43.861 33.0583 44.3402 31.9951 44.9541C30.932 45.568 29.9661 46.3167 29.0977 47.2002C28.2292 48.0837 27.4805 49.057 26.8516 50.1201C26.2227 51.1833 25.736 52.3288 25.3916 53.5566C25.0472 54.7845 24.875 56.0573 24.875 57.375H22C22 55.5781 22.262 53.8486 22.7861 52.1865C23.3102 50.5244 24.0664 48.9896 25.0547 47.582C26.043 46.1745 27.2109 44.9242 28.5586 43.8311C29.9062 42.738 31.4336 41.877 33.1406 41.248C31.4486 40.14 30.1309 38.7474 29.1875 37.0703C28.2441 35.3932 27.765 33.5365 27.75 31.5C27.75 29.9128 28.0495 28.4229 28.6484 27.0303C29.2474 25.6377 30.0635 24.4173 31.0967 23.3691C32.1299 22.321 33.3503 21.4974 34.7578 20.8984C36.1654 20.2995 37.6628 20 39.25 20C40.8372 20 42.3271 20.2995 43.7197 20.8984C45.1123 21.4974 46.3327 22.3135 47.3809 23.3467C48.429 24.3799 49.2526 25.6003 49.8516 27.0078C50.4505 28.4154 50.75 29.9128 50.75 31.5C50.75 32.4883 50.6302 33.4541 50.3906 34.3975C50.151 35.3408 49.7917 36.2318 49.3125 37.0703C48.8333 37.9089 48.2718 38.68 47.6279 39.3838C46.984 40.0876 46.2279 40.709 45.3594 41.248C46.3327 41.6224 47.2611 42.0791 48.1445 42.6182C49.028 43.1572 49.859 43.7637 50.6377 44.4375L48.6162 46.4814ZM30.625 31.5C30.625 32.6979 30.8496 33.8135 31.2988 34.8467C31.748 35.8799 32.362 36.7933 33.1406 37.5869C33.9193 38.3805 34.8327 39.002 35.8809 39.4512C36.929 39.9004 38.0521 40.125 39.25 40.125C40.4329 40.125 41.5485 39.9004 42.5967 39.4512C43.6449 39.002 44.5583 38.388 45.3369 37.6094C46.1156 36.8307 46.737 35.9173 47.2012 34.8691C47.6654 33.821 47.89 32.6979 47.875 31.5C47.875 30.3171 47.6504 29.2015 47.2012 28.1533C46.752 27.1051 46.138 26.1917 45.3594 25.4131C44.5807 24.6344 43.6598 24.013 42.5967 23.5488C41.5335 23.0846 40.418 22.86 39.25 22.875C38.0521 22.875 36.9365 23.0996 35.9033 23.5488C34.8701 23.998 33.9567 24.612 33.1631 25.3906C32.3695 26.1693 31.748 27.0902 31.2988 28.1533C30.8496 29.2165 30.625 30.332 30.625 31.5ZM60.8125 37.25C61.8008 37.25 62.7292 37.4372 63.5977 37.8115C64.4661 38.1859 65.2223 38.7025 65.8662 39.3613C66.5101 40.0202 67.0267 40.7839 67.416 41.6523C67.8053 42.5208 68 43.4492 68 44.4375C68 45.4258 67.8128 46.3542 67.4385 47.2227C67.0641 48.0911 66.5475 48.8548 65.8887 49.5137C65.2298 50.1725 64.4661 50.6891 63.5977 51.0635C62.7292 51.4378 61.8008 51.625 60.8125 51.625C60.4681 51.625 60.1312 51.6025 59.8018 51.5576L46.6172 64.7422C46.2129 65.1465 45.7487 65.4534 45.2246 65.6631C44.7005 65.8727 44.1465 65.985 43.5625 66C42.9635 66 42.402 65.8877 41.8779 65.6631C41.3538 65.4385 40.8971 65.1315 40.5078 64.7422C40.1185 64.3529 39.8115 63.8962 39.5869 63.3721C39.3623 62.848 39.25 62.2865 39.25 61.6875C39.25 61.1185 39.3548 60.5719 39.5645 60.0479C39.7741 59.5238 40.0885 59.0521 40.5078 58.6328L53.6924 45.4482C53.6475 45.1188 53.625 44.7819 53.625 44.4375C53.625 43.4492 53.8122 42.5208 54.1865 41.6523C54.5609 40.7839 55.07 40.0277 55.7139 39.3838C56.3577 38.7399 57.1214 38.2233 58.0049 37.834C58.8883 37.4447 59.8242 37.25 60.8125 37.25ZM60.8125 48.75C61.4115 48.75 61.973 48.6377 62.4971 48.4131C63.0212 48.1885 63.4779 47.8815 63.8672 47.4922C64.2565 47.1029 64.5635 46.6462 64.7881 46.1221C65.0127 45.598 65.125 45.0365 65.125 44.4375C65.125 43.8236 64.9827 43.2096 64.6982 42.5957L61.4189 45.875H59.375V43.8311L62.6543 40.5518C62.0404 40.2673 61.4264 40.125 60.8125 40.125C60.2135 40.125 59.652 40.2373 59.1279 40.4619C58.6038 40.6865 58.1471 40.9935 57.7578 41.3828C57.3685 41.7721 57.0615 42.2288 56.8369 42.7529C56.6123 43.277 56.5 43.8385 56.5 44.4375C56.5 45.0514 56.6423 45.6654 56.9268 46.2793L42.5518 60.6768C42.2673 60.9613 42.125 61.2982 42.125 61.6875C42.125 62.0768 42.2673 62.4137 42.5518 62.6982C42.8363 62.9827 43.1732 63.125 43.5625 63.125C43.9518 63.125 44.2887 62.9827 44.5732 62.6982L58.9707 48.3232C59.5846 48.6077 60.1986 48.75 60.8125 48.75Z" fill="white"/>
</g>
<defs>
<clipPath id="clip0_5458_315">
<rect width="46" height="46" fill="white" transform="translate(22 20)"/>
</clipPath>
</defs>
</svg>
