<svg width="86" height="86" viewBox="0 0 86 86" fill="none" xmlns="http://www.w3.org/2000/svg">
<rect width="86" height="86" rx="37" fill="#845FFF" fill-opacity="0.3"/>
<rect x="7" y="7" width="72" height="72" rx="31" fill="#845FFF"/>
<path d="M37.2496 31.5C38.2079 32.4584 40.1303 32.2897 42.9996 29.9207M42.9996 29.9207C42.5754 29.5732 42.1352 29.1732 41.679 28.7209C37.2592 24.3432 31.2408 25.2 28.4214 28.7209C26.4741 31.155 21.4907 37.2117 33.6884 58.7934C34.1944 59.6865 35.2007 60.25 36.2836 60.25C38.0124 60.25 39.3637 58.87 39.4192 57.26C39.54 53.8445 40.2012 49.9058 42.9996 49.9058C45.7979 49.9058 46.4611 53.8445 46.5799 57.26C46.6355 58.87 47.9867 60.25 49.7156 60.25C50.7985 60.25 51.8047 59.6865 52.3107 58.7934C64.5103 37.2098 59.5251 31.155 57.5777 28.7209C54.7583 25.2 48.74 24.3432 44.3202 28.7209C43.864 29.1719 43.4238 29.5719 42.9996 29.9207Z" stroke="white" stroke-width="3.125" stroke-linecap="round" stroke-linejoin="round"/>
</svg>
