<svg width="86" height="86" viewBox="0 0 86 86" fill="none" xmlns="http://www.w3.org/2000/svg">
<rect width="86" height="86" rx="37" fill="#FF7F40" fill-opacity="0.3"/>
<rect x="7" y="7" width="72" height="72" rx="31" fill="#FF7F40"/>
<path d="M42.9987 31.6835L41.9484 32.6648C42.0828 32.8088 42.2455 32.9235 42.4262 33.002C42.6068 33.0804 42.8017 33.1209 42.9987 33.1209C43.1957 33.1209 43.3906 33.0804 43.5712 33.002C43.7519 32.9235 43.9145 32.8088 44.049 32.6648L42.9987 31.6835ZM38.0805 57.0257C35.3014 54.7717 32.0584 51.8142 29.5207 48.577C26.9543 45.3052 25.2695 41.9453 25.2695 38.8595H22.3945C22.3945 42.9171 24.5604 46.9133 27.2571 50.3518C29.9826 53.8267 33.4096 56.9375 36.2693 59.2586L38.0805 57.0257ZM25.2695 38.8595C25.2695 33.2916 27.6999 29.8512 30.7052 28.6724C33.7048 27.4975 37.9004 28.337 41.9484 32.6648L44.049 30.7022C39.472 25.807 34.0843 24.2622 29.6568 25.9948C25.235 27.7275 22.3945 32.4847 22.3945 38.8595H25.2695ZM49.7262 59.2567C52.5878 56.9356 56.0148 53.8248 58.7403 50.3499C61.437 46.9114 63.6029 42.9152 63.6029 38.8557H60.7279C60.7279 41.9453 59.0412 45.3033 56.4767 48.5751C53.939 51.8123 50.696 54.7698 47.9169 57.0238L49.7262 59.2567ZM63.6029 38.8557C63.6029 32.4827 60.7624 27.7256 56.3387 25.9948C51.9112 24.2602 46.5254 25.8032 41.9484 30.7003L44.049 32.6648C48.097 28.337 52.2926 27.4956 55.2922 28.6705C58.2975 29.8473 60.7279 33.2897 60.7279 38.8557H63.6029ZM36.2693 59.2586C38.7034 61.2366 40.3959 62.6875 42.9987 62.6875V59.8125C41.6129 59.8125 40.7504 59.1915 38.0805 57.0257L36.2693 59.2586ZM47.9169 57.0238C45.2469 59.1896 44.3844 59.8125 42.9987 59.8125V62.6875C45.6015 62.6875 47.2939 61.2366 49.7281 59.2586L47.9169 57.0238Z" fill="white"/>
<path d="M55.4557 38.25H51.6224M51.6224 38.25H47.7891M51.6224 38.25V34.4166M51.6224 38.25V42.0833" stroke="white" stroke-width="3.125" stroke-linecap="round"/>
</svg>
