<svg width="86" height="86" viewBox="0 0 86 86" fill="none" xmlns="http://www.w3.org/2000/svg">
<rect width="86" height="86" rx="37" fill="#845FFF" fill-opacity="0.3"/>
<rect x="7" y="7" width="72" height="72" rx="31" fill="#845FFF"/>
<path d="M21.918 62.1665C21.918 63.2015 22.7805 64.0832 23.8346 64.0832H48.7513C49.8246 64.0832 50.668 63.2015 50.668 62.1665V60.2498H21.918V62.1665ZM36.293 37.2498C29.1055 37.2498 21.918 41.0832 21.918 48.7498H50.668C50.668 41.0832 43.4805 37.2498 36.293 37.2498ZM26.9396 44.9165C29.0671 41.9457 33.5905 41.0832 36.293 41.0832C38.9955 41.0832 43.5188 41.9457 45.6463 44.9165H26.9396ZM21.918 52.5832H50.668V56.4165H21.918V52.5832ZM54.5013 29.5832V21.9165H50.668V29.5832H41.0846L41.5255 33.4165H59.8488L57.1655 60.2498H54.5013V64.0832H57.798C59.408 64.0832 60.7305 62.8373 60.9221 61.2657L64.0846 29.5832H54.5013Z" fill="white"/>
</svg>
