<svg width="86" height="86" viewBox="0 0 86 86" fill="none" xmlns="http://www.w3.org/2000/svg">
<rect width="86" height="86" rx="37" fill="#FF7F40" fill-opacity="0.3"/>
<rect x="7" y="7" width="72" height="72" rx="31" fill="#FF7F40"/>
<path d="M56.4154 58.3332H29.582V60.2498C29.582 60.7582 29.3801 61.2457 29.0207 61.6051C28.6612 61.9646 28.1737 62.1665 27.6654 62.1665H25.7487C25.2404 62.1665 24.7529 61.9646 24.3934 61.6051C24.034 61.2457 23.832 60.7582 23.832 60.2498V41.0832L28.5854 29.9895C28.8812 29.2995 29.373 28.7115 30 28.2986C30.6269 27.8856 31.3613 27.6658 32.112 27.6665H53.8854C54.6354 27.6666 55.369 27.8867 55.9952 28.2996C56.6214 28.7126 57.1127 29.3001 57.4082 29.9895L62.1654 41.0832V60.2498C62.1654 60.7582 61.9634 61.2457 61.604 61.6051C61.2445 61.9646 60.757 62.1665 60.2487 62.1665H58.332C57.8237 62.1665 57.3362 61.9646 56.9767 61.6051C56.6173 61.2457 56.4154 60.7582 56.4154 60.2498V58.3332ZM58.332 44.9165H27.6654V54.4998H58.332V44.9165ZM28.0027 41.0832H57.9947L53.8873 31.4998H32.112L28.0027 41.0832ZM32.457 52.5832C31.6945 52.5832 30.9633 52.2803 30.4241 51.7411C29.8849 51.2019 29.582 50.4707 29.582 49.7082C29.582 48.9457 29.8849 48.2144 30.4241 47.6752C30.9633 47.1361 31.6945 46.8332 32.457 46.8332C33.2195 46.8332 33.9508 47.1361 34.49 47.6752C35.0291 48.2144 35.332 48.9457 35.332 49.7082C35.332 50.4707 35.0291 51.2019 34.49 51.7411C33.9508 52.2803 33.2195 52.5832 32.457 52.5832ZM53.5404 52.5832C52.7779 52.5832 52.0466 52.2803 51.5074 51.7411C50.9683 51.2019 50.6654 50.4707 50.6654 49.7082C50.6654 48.9457 50.9683 48.2144 51.5074 47.6752C52.0466 47.1361 52.7779 46.8332 53.5404 46.8332C54.3029 46.8332 55.0341 47.1361 55.5733 47.6752C56.1125 48.2144 56.4154 48.9457 56.4154 49.7082C56.4154 50.4707 56.1125 51.2019 55.5733 51.7411C55.0341 52.2803 54.3029 52.5832 53.5404 52.5832Z" fill="white"/>
</svg>
