<svg width="86" height="86" viewBox="0 0 86 86" fill="none" xmlns="http://www.w3.org/2000/svg">
<rect width="86" height="86" rx="37" fill="#0071CE" fill-opacity="0.3"/>
<rect x="7" y="7" width="72" height="72" rx="31" fill="#0071CE"/>
<path d="M56.418 46.8333V34.375L46.8346 27.6667L37.2513 34.375V37.25H33.418V32.4583L46.8346 22.875L60.2513 32.4583V46.8333H56.418ZM47.793 35.3333H49.7096V33.4167H47.793V35.3333ZM43.9596 35.3333H45.8763V33.4167H43.9596V35.3333ZM47.793 39.1667H49.7096V37.25H47.793V39.1667ZM43.9596 39.1667H45.8763V37.25H43.9596V39.1667ZM33.418 55.4583L46.7388 59.1L58.143 55.5542C57.9832 55.2667 57.7513 55.0188 57.4472 54.8105C57.1431 54.6022 56.8 54.4987 56.418 54.5H46.7388C45.8763 54.5 45.1895 54.4681 44.6784 54.4042C44.1673 54.3403 43.6402 54.2125 43.0971 54.0208L38.6409 52.5354L39.6951 48.7979L43.5763 50.0917C44.1194 50.2514 44.7582 50.3792 45.493 50.475C46.2277 50.5708 47.3138 50.6347 48.7513 50.6667C48.7513 50.3153 48.6478 49.9799 48.4408 49.6604C48.2338 49.341 47.9859 49.1333 47.6971 49.0375L36.4846 44.9167H33.418V55.4583ZM21.918 62.1667V41.0833H36.4846C36.7082 41.0833 36.9319 41.1076 37.1555 41.1562C37.3791 41.2047 37.5867 41.2603 37.7784 41.3229L49.0388 45.4917C50.093 45.875 50.9478 46.5458 51.6033 47.5042C52.2588 48.4625 52.5859 49.5167 52.5846 50.6667H56.418C58.0152 50.6667 59.3728 51.1938 60.4909 52.2479C61.6089 53.3021 62.168 54.6917 62.168 56.4167V58.3333L46.8346 63.125L33.418 59.3875V62.1667H21.918ZM25.7513 58.3333H29.5846V44.9167H25.7513V58.3333Z" fill="white"/>
</svg>
