<svg width="86" height="86" viewBox="0 0 86 86" fill="none" xmlns="http://www.w3.org/2000/svg">
<rect width="86" height="86" rx="37" fill="#00CE3F" fill-opacity="0.3"/>
<rect x="7" y="7" width="72" height="72" rx="31" fill="#00CE3F"/>
<path d="M34.1846 33.4165H28.818C28.513 33.4165 28.2205 33.5377 28.0048 33.7533C27.7891 33.969 27.668 34.2615 27.668 34.5665V51.4332C27.668 51.5842 27.6977 51.7337 27.7555 51.8733C27.8133 52.0128 27.898 52.1396 28.0048 52.2463C28.1116 52.3531 28.2384 52.4378 28.3779 52.4956C28.5174 52.5534 28.6669 52.5832 28.818 52.5832H34.1846C34.3357 52.5832 34.4852 52.5534 34.6247 52.4956C34.7642 52.4378 34.891 52.3531 34.9978 52.2463C35.1046 52.1396 35.1893 52.0128 35.2471 51.8733C35.3049 51.7337 35.3346 51.5842 35.3346 51.4332V34.5665C35.3346 34.2615 35.2135 33.969 34.9978 33.7533C34.7821 33.5377 34.4896 33.4165 34.1846 33.4165ZM57.1846 33.4165H51.818C51.513 33.4165 51.2205 33.5377 51.0048 33.7533C50.7891 33.969 50.668 34.2615 50.668 34.5665V51.4332C50.668 51.5842 50.6977 51.7337 50.7555 51.8733C50.8133 52.0128 50.898 52.1396 51.0048 52.2463C51.1116 52.3531 51.2384 52.4378 51.3779 52.4956C51.5174 52.5534 51.6669 52.5832 51.818 52.5832H57.1846C57.3357 52.5832 57.4852 52.5534 57.6247 52.4956C57.7642 52.4378 57.891 52.3531 57.9978 52.2463C58.1046 52.1396 58.1893 52.0128 58.2471 51.8733C58.3049 51.7337 58.3346 51.5842 58.3346 51.4332V34.5665C58.3346 34.2615 58.2135 33.969 57.9978 33.7533C57.7821 33.5377 57.4896 33.4165 57.1846 33.4165Z" stroke="white" stroke-width="3.125" stroke-linecap="round" stroke-linejoin="round"/>
<path d="M35.3346 42.9998H50.668M21.918 47.5998V38.3998C21.918 38.0948 22.0391 37.8022 22.2548 37.5866C22.4705 37.3709 22.763 37.2498 23.068 37.2498H26.518C26.823 37.2498 27.1155 37.3709 27.3311 37.5866C27.5468 37.8022 27.668 38.0948 27.668 38.3998V47.5998C27.668 47.9048 27.5468 48.1973 27.3311 48.4129C27.1155 48.6286 26.823 48.7498 26.518 48.7498H23.068C22.763 48.7498 22.4705 48.6286 22.2548 48.4129C22.0391 48.1973 21.918 47.9048 21.918 47.5998ZM64.0846 47.5998V38.3998C64.0846 38.0948 63.9635 37.8022 63.7478 37.5866C63.5321 37.3709 63.2396 37.2498 62.9346 37.2498H59.4846C59.1796 37.2498 58.8871 37.3709 58.6715 37.5866C58.4558 37.8022 58.3346 38.0948 58.3346 38.3998V47.5998C58.3346 47.9048 58.4558 48.1973 58.6715 48.4129C58.8871 48.6286 59.1796 48.7498 59.4846 48.7498H62.9346C63.2396 48.7498 63.5321 48.6286 63.7478 48.4129C63.9635 48.1973 64.0846 47.9048 64.0846 47.5998Z" stroke="white" stroke-width="3.125" stroke-linecap="round" stroke-linejoin="round"/>
</svg>
