<svg width="86" height="86" viewBox="0 0 86 86" fill="none" xmlns="http://www.w3.org/2000/svg">
<rect width="86" height="86" rx="37" fill="#00CE3F" fill-opacity="0.3"/>
<rect x="7" y="7" width="72" height="72" rx="31" fill="#00CE3F"/>
<path d="M34.3761 51.625C35.1386 51.625 35.8698 51.3221 36.409 50.7829C36.9482 50.2438 37.2511 49.5125 37.2511 48.75C37.2511 47.9875 36.9482 47.2562 36.409 46.7171C35.8698 46.1779 35.1386 45.875 34.3761 45.875C33.6136 45.875 32.8823 46.1779 32.3432 46.7171C31.804 47.2562 31.5011 47.9875 31.5011 48.75C31.5011 49.5125 31.804 50.2438 32.3432 50.7829C32.8823 51.3221 33.6136 51.625 34.3761 51.625ZM45.8761 48.75C45.8761 49.5125 45.5732 50.2438 45.034 50.7829C44.4949 51.3221 43.7636 51.625 43.0011 51.625C42.2386 51.625 41.5073 51.3221 40.9682 50.7829C40.429 50.2438 40.1261 49.5125 40.1261 48.75C40.1261 47.9875 40.429 47.2562 40.9682 46.7171C41.5073 46.1779 42.2386 45.875 43.0011 45.875C43.7636 45.875 44.4949 46.1779 45.034 46.7171C45.5732 47.2562 45.8761 47.9875 45.8761 48.75ZM51.6261 51.625C52.3886 51.625 53.1199 51.3221 53.659 50.7829C54.1982 50.2438 54.5011 49.5125 54.5011 48.75C54.5011 47.9875 54.1982 47.2562 53.659 46.7171C53.1199 46.1779 52.3886 45.875 51.6261 45.875C50.8636 45.875 50.1323 46.1779 49.5932 46.7171C49.054 47.2562 48.7511 47.9875 48.7511 48.75C48.7511 49.5125 49.054 50.2438 49.5932 50.7829C50.1323 51.3221 50.8636 51.625 51.6261 51.625ZM28.813 25.8751C29.2176 25.3862 29.7252 24.9927 30.2994 24.7226C30.8737 24.4525 31.5004 24.3125 32.135 24.3125H53.8686C54.5034 24.3123 55.1305 24.4522 55.705 24.7223C56.2795 24.9924 56.7873 25.386 57.1921 25.8751L63.898 33.9797C65.4491 35.8542 64.1151 38.6875 61.6828 38.6875H60.2511V57.0156C60.2511 57.6291 60.1302 58.2367 59.8955 58.8035C59.6607 59.3703 59.3165 59.8853 58.8827 60.3191C58.4489 60.753 57.9339 61.0971 57.3671 61.3319C56.8002 61.5667 56.1927 61.6875 55.5792 61.6875H30.423C29.1839 61.6875 27.9956 61.1953 27.1194 60.3191C26.2433 59.443 25.7511 58.2547 25.7511 57.0156V38.6875H24.3222C21.8885 38.6875 20.556 35.8542 22.107 33.9797L28.813 25.8751ZM28.6261 38.6875V57.0156C28.6261 58.0075 29.4311 58.8125 30.423 58.8125H55.5792C56.5711 58.8125 57.3761 58.0075 57.3761 57.0156V38.6875H28.6261ZM32.135 27.1875C31.9236 27.1875 31.7148 27.2341 31.5235 27.3241C31.3322 27.414 31.163 27.5451 31.0281 27.7079L24.3222 35.8125H61.6814L54.9755 27.7079C54.8406 27.5451 54.6714 27.414 54.4801 27.3241C54.2888 27.2341 54.08 27.1875 53.8686 27.1875H32.135Z" fill="white"/>
</svg>
